<svg xmlns="http://www.w3.org/2000/svg" x="0px" y="0px"
width="48" height="48"
viewBox="0 0 172 172"
style=" fill:#000000;"><defs><linearGradient x1="43.2365" y1="0.2365" x2="125.02608" y2="82.02608" gradientUnits="userSpaceOnUse" id="color-1_MmupZtPbnw66_gr1"><stop offset="0.237" stop-color="#04eeff"></stop><stop offset="0.85" stop-color="#4f96f1"></stop></linearGradient><linearGradient x1="43.2365" y1="43.2365" x2="125.02608" y2="125.02608" gradientUnits="userSpaceOnUse" id="color-2_MmupZtPbnw66_gr2"><stop offset="0.237" stop-color="#04eeff"></stop><stop offset="0.85" stop-color="#4f96f1"></stop></linearGradient><linearGradient x1="43.2365" y1="86.2365" x2="125.02608" y2="168.02608" gradientUnits="userSpaceOnUse" id="color-3_MmupZtPbnw66_gr3"><stop offset="0.237" stop-color="#04eeff"></stop><stop offset="0.85" stop-color="#4f96f1"></stop></linearGradient></defs><g fill="none" fill-rule="nonzero" stroke="none" stroke-width="1" stroke-linecap="butt" stroke-linejoin="miter" stroke-miterlimit="10" stroke-dasharray="" stroke-dashoffset="0" font-family="none" font-weight="none" font-size="none" text-anchor="none" style="mix-blend-mode: normal"><path d="M0,172v-172h172v172z" fill="none"></path><g><path d="M154.08333,53.75h-136.16667c-3.94167,0 -7.16667,-3.225 -7.16667,-7.16667v-7.16667c0,-3.94167 3.225,-7.16667 7.16667,-7.16667h136.16667c3.94167,0 7.16667,3.225 7.16667,7.16667v7.16667c0,3.94167 -3.225,7.16667 -7.16667,7.16667z" fill="url(#color-1_MmupZtPbnw66_gr1)"></path><path d="M154.08333,96.75h-136.16667c-3.94167,0 -7.16667,-3.225 -7.16667,-7.16667v-7.16667c0,-3.94167 3.225,-7.16667 7.16667,-7.16667h136.16667c3.94167,0 7.16667,3.225 7.16667,7.16667v7.16667c0,3.94167 -3.225,7.16667 -7.16667,7.16667z" fill="url(#color-2_MmupZtPbnw66_gr2)"></path><path d="M154.08333,139.75h-136.16667c-3.94167,0 -7.16667,-3.225 -7.16667,-7.16667v-7.16667c0,-3.94167 3.225,-7.16667 7.16667,-7.16667h136.16667c3.94167,0 7.16667,3.225 7.16667,7.16667v7.16667c0,3.94167 -3.225,7.16667 -7.16667,7.16667z" fill="url(#color-3_MmupZtPbnw66_gr3)"></path></g></g></svg>