<svg xmlns="http://www.w3.org/2000/svg" x="0px" y="0px"
width="64" height="64"
viewBox="0 0 172 172"
style=" fill:#000000;"><g fill="none" fill-rule="nonzero" stroke="none" stroke-width="1" stroke-linecap="butt" stroke-linejoin="miter" stroke-miterlimit="10" stroke-dasharray="" stroke-dashoffset="0" font-family="none" font-weight="none" font-size="none" text-anchor="none" style="mix-blend-mode: normal"><path d="M0,172v-172h172v172z" fill="none"></path><g><path d="M2.65391,86c0,-46.02344 37.32266,-83.34609 83.34609,-83.34609c46.02344,0 83.34609,37.32266 83.34609,83.34609c0,46.02344 -37.32266,83.34609 -83.34609,83.34609c-46.02344,0 -83.34609,-37.32266 -83.34609,-83.34609z" fill="#0493e6"></path><path d="M34.66875,82.47266l47.43437,-29.12578c1.31016,-0.80625 2.98984,-0.83984 4.33359,-0.10078c1.34375,0.73906 2.18359,2.18359 2.18359,3.72891v58.01641c0,1.54531 -0.83984,2.95625 -2.18359,3.72891c-0.63828,0.36953 -1.37734,0.5375 -2.08281,0.5375c-0.77266,0 -1.54531,-0.20156 -2.21719,-0.63828l-47.43437,-28.89062c-1.27656,-0.77266 -2.04922,-2.15 -2.04922,-3.62813c-0.03359,-1.47812 0.73906,-2.85547 2.01563,-3.62812z" fill="#ffffff"></path><path d="M56.60547,77.09766h78.71016c2.25078,0 4.03125,1.81406 4.03125,4.03125v9.70859c0,2.25078 -1.81406,4.03125 -4.03125,4.03125h-78.71016c-2.25078,0 -4.03125,-1.81406 -4.03125,-4.03125v-9.70859c-0.03359,-2.21719 1.78047,-4.03125 4.03125,-4.03125z" fill="#ffffff"></path></g></g></svg>